<svg xmlns="http://www.w3.org/2000/svg" xmlns:svg="http://www.w3.org/2000/svg" id="Capa_1" x="0" y="0" version="1.1" viewBox="0 0 469 469" xml:space="preserve" style="enable-background:new 0 0 469 469"><metadata id="metadata1019"/><path id="path974" d="M 437.19448,20.45734 H 32.905871 c -6.8601,0 -12.34818,5.48808 -12.34818,12.348181 V 197.21927 c 0,6.8601 5.48808,12.34818 12.34818,12.34818 6.860101,0 12.348182,-5.48808 12.348182,-12.34818 V 45.153703 H 424.84628 V 424.74594 H 269.12201 c -6.86011,0 -12.3482,5.48808 -12.3482,12.34819 0,6.8601 5.48809,12.34818 12.3482,12.34818 h 168.07247 c 6.86009,0 12.34818,-5.48808 12.34818,-12.34818 V 32.805521 c 0,-6.860101 -5.48809,-12.348181 -12.34818,-12.348181 z" style="stroke:#000;stroke-width:.91468;stroke-opacity:1;fill:#000;fill-opacity:1"/><path id="path976" d="M 214.81715,236.78471 H 35.492216 c -8.296959,0 -14.934525,6.74746 -14.934525,15.1818 v 182.294 c 0,8.43433 6.637566,15.1818 14.934525,15.1818 H 214.81715 c 8.29696,0 14.93452,-6.74747 14.93452,-15.1818 v -182.294 c 0,-8.32187 -6.74819,-15.1818 -14.93452,-15.1818 z M 199.88262,419.07872 H 50.426741 V 267.14832 H 199.88262 Z" style="stroke:#000;stroke-width:1.11539;stroke-opacity:1;fill:#000;fill-opacity:1"/><path id="path978" d="m 270.71905,180.93796 v -65.39962 c 0,-6.86011 -5.48809,-12.34819 -12.3482,-12.34819 -6.86009,0 -12.34817,5.48808 -12.34817,12.34819 v 95.2182 c 0,6.86011 5.48808,12.34818 12.34817,12.34818 h 95.2182 c 6.8601,0 12.34819,-5.48807 12.34819,-12.34818 0,-6.8601 -5.48809,-12.34818 -12.34819,-12.34818 h -65.39963 l 100.44137,-97.15919 c 4.92766,-4.766631 4.8478,-12.62259 0,-17.470394 -2.37816,-2.378168 -5.57955,-3.65872 -8.68946,-3.65872 -3.10991,0 -6.31129,1.189084 -8.68945,3.65872 z" style="stroke:#000;stroke-width:.91468;stroke-opacity:1;fill:#000;fill-opacity:1"/></svg>