<svg xmlns="http://www.w3.org/2000/svg" xmlns:svg="http://www.w3.org/2000/svg" id="Capa_1" x="0" y="0" version="1.1" viewBox="0 0 469 469" xml:space="preserve" style="enable-background:new 0 0 469 469"><metadata id="metadata1019"/><path id="path974" d="M 437.19448,20.45734 H 32.905871 c -6.860101,0 -12.348181,5.488081 -12.348181,12.348182 V 197.21927 c 0,6.8601 5.48808,12.34818 12.348181,12.34818 6.860101,0 12.348181,-5.48808 12.348181,-12.34818 V 45.153703 H 424.8463 V 424.74595 H 269.12201 c -6.8601,0 -12.34818,5.48807 -12.34818,12.34818 0,6.8601 5.48808,12.34818 12.34818,12.34818 h 168.07247 c 6.8601,0 12.34818,-5.48808 12.34818,-12.34818 V 32.805522 c 0,-6.860101 -5.48808,-12.348182 -12.34818,-12.348182 z" style="stroke:#000;stroke-width:.91468;stroke-opacity:1;fill:#000;fill-opacity:1"/><path id="path976" d="M 214.81715,236.78471 H 35.492215 c -8.296959,0 -14.934525,6.74747 -14.934525,15.18179 v 182.29401 c 0,8.43433 6.637566,15.1818 14.934525,15.1818 H 214.81715 c 8.29696,0 14.93452,-6.74747 14.93452,-15.1818 V 251.9665 c 0,-8.32187 -6.74819,-15.18179 -14.93452,-15.18179 z M 199.88262,419.07872 H 50.42674 v -151.9304 h 149.45588 z" style="stroke:#000;stroke-width:1.11538;stroke-opacity:1;fill:#000;fill-opacity:1"/><path id="path978" d="m 367.59681,122.28681 v 65.39963 c 0,6.86009 5.48808,12.34818 12.34818,12.34818 6.8601,0 12.34819,-5.48809 12.34819,-12.34818 V 92.468237 c 0,-6.860101 -5.48809,-12.348181 -12.34819,-12.348181 H 284.7268 c -6.8601,0 -12.34818,5.48808 -12.34818,12.348181 0,6.860101 5.48808,12.348183 12.34818,12.348183 h 65.39963 l -100.44137,97.15919 c -4.92765,4.76662 -4.84781,12.62259 0,17.47038 2.37817,2.37817 5.57954,3.65873 8.68946,3.65873 3.10991,0 6.31129,-1.18909 8.68946,-3.65873 z" style="stroke:#000;stroke-width:.91468;stroke-opacity:1;fill:#000;fill-opacity:1"/></svg>