<svg xmlns="http://www.w3.org/2000/svg" xmlns:svg="http://www.w3.org/2000/svg" id="svg924" version="1.1" viewBox="0 0 1024 1024"><metadata id="metadata930"/><desc id="desc918">settings_overscan icon - Licensed under Apache License v2.0 (http://www.apache.org/licenses/LICENSE-2.0) - Created with Iconfu.com - Derivative work of Material icons (Copyright Google Inc.)</desc><g style="mix-blend-mode:normal;fill:#000;fill-opacity:1" id="g922" fill="#03b8e5" fill-rule="nonzero" transform="matrix(1.0785977,0,0,1.1575898,-39.79472,-91.458598)"><path id="path920" d="M 981.33,213.33 V 810.67 C 981.33,857.6 942.93,896 896,896 H 128 C 81.07,896 42.67,857.6 42.67,810.67 V 213.33 C 42.67,166.4 81.07,128 128,128 h 768 c 46.93,0 85.33,38.4 85.33,85.33 z M 896,212.91 H 128 V 811.09 H 896 Z M 256,597.33 149.33,512.43 256,426.67 Z m 341.33,-256 H 426.67 L 512.43,234.67 Z M 874.67,512.43 768,597.33 V 426.67 Z M 512.43,789.33 426.67,682.67 h 170.66 z" style="fill:#000;fill-opacity:1"/></g></svg>