<svg xmlns="http://www.w3.org/2000/svg" xmlns:svg="http://www.w3.org/2000/svg" id="svg10" x="0" y="0" enable-background="new 0 0 1000 1000" version="1.1" viewBox="0 0 1000 1000" xml:space="preserve"><metadata id="metadata2">Svg Vector Icons : http://www.onlinewebfonts.com/icon</metadata><g style="fill:#000;fill-opacity:1" id="g8" transform="matrix(0.94116218,0,0,0.93651638,26.384119,37.053051)"><g style="fill:#000;fill-opacity:1" id="g6"><path style="fill:#000;fill-opacity:1" id="path4" d="m 368.9,787.4 -49.6,49.3 c -42.9,42.6 -112.9,42.6 -155.9,0 -20.6,-20.5 -31.9,-47.7 -31.9,-76.7 0,-29 11.4,-56.1 31.9,-76.7 l 182.5,-181 c 37.8,-37.5 109,-92.8 160.8,-41.3 23.8,23.6 62.2,23.5 85.9,-0.3 23.6,-23.8 23.5,-62.3 -0.4,-85.9 -88.1,-87.5 -218.4,-71.3 -331.9,41.3 L 77.9,597.3 C 34.1,640.7 10,698.6 10,760.1 c 0,61.6 24.1,119.4 67.9,162.8 45.1,44.7 104.2,67.1 163.5,67.1 59.3,0 118.5,-22.4 163.5,-67.1 l 49.7,-49.3 c 23.8,-23.6 23.9,-62 0.3,-85.8 -23.8,-23.8 -62.2,-23.9 -86,-0.4 z M 922.1,84 C 827.3,-9.9 694.9,-15 607.3,72 l -61.8,61.4 c -23.8,23.6 -24,62 -0.4,85.8 23.6,23.8 62,23.9 85.9,0.3 l 61.9,-61.3 c 45.3,-45.1 104.8,-26.4 143.7,12.1 20.6,20.5 32,47.7 32,76.7 0,29 -11.4,56.2 -32,76.6 L 641.8,516.7 C 552.7,605 511,563.6 493.1,545.9 c -23.8,-23.6 -62.2,-23.5 -85.8,0.3 -23.6,23.8 -23.5,62.3 0.3,85.8 40.9,40.5 87.6,60.6 136.5,60.6 59.8,0 123.1,-30.1 183.3,-89.9 L 922.2,409.6 C 965.8,366.1 990,308.3 990,246.8 990,185.3 965.8,127.5 922.1,84 Z"/></g></g></svg>