<svg xmlns="http://www.w3.org/2000/svg" xmlns:svg="http://www.w3.org/2000/svg" id="Capa_1" width="487.881" height="487.881" x="0" style="enable-background:new 0 0 487.881 487.881" y="0" version="1.1" viewBox="0 0 487.881 487.881" xml:space="preserve"><metadata id="metadata41"/><g id="g4" transform="matrix(0.94915254,0,0,1.1003888,12.403755,-25.522531)" style="stroke:none;stroke-opacity:1;fill:#000;fill-opacity:1"><path id="path2" d="m 487.881,264.183 v 8.434 c 0,69.352 -56.425,125.77 -125.77,125.77 H 125.77 C 56.424,398.386 0,341.968 0,272.616 v -8.434 C 0,194.836 56.424,138.418 125.77,138.418 l 13.914,0.502 c 0,0 -23.029,15.817 -13.914,48.584 -44.331,0 -76.669,34.397 -76.669,76.678 v 8.428 c 0,42.28 34.398,76.675 76.669,76.675 h 236.342 c 42.279,0 76.675,-34.395 76.675,-76.675 v -8.428 c 0,-42.28 -34.396,-76.678 -76.675,-76.678 H 249.505 v 0 H 219.81 l 17.328,43.87 c 0.612,1.545 0.115,3.313 -1.218,4.318 -1.33,1.002 -3.166,0.996 -4.483,-0.021 l -90.754,-69.768 c -0.907,-0.701 -1.445,-1.785 -1.439,-2.935 0,-1.15 0.532,-2.234 1.439,-2.935 l 90.76,-69.776 c 0.659,-0.514 1.457,-0.763 2.252,-0.763 0.786,0 1.566,0.243 2.231,0.745 1.333,1.005 1.824,2.766 1.218,4.314 l -17.328,43.876 h 29.701 v 0 h 112.601 c 69.338,-0.01 125.763,56.414 125.763,125.754 z" style="stroke:none;stroke-opacity:1;fill:#000;fill-opacity:1"/></g></svg>