<svg xmlns="http://www.w3.org/2000/svg" xmlns:svg="http://www.w3.org/2000/svg" id="svg1" x="0" y="0" _SVGFile__filename="oldscale/actions/checkedbox.svg" version="1.0" viewBox="0 0 60 60"><path id="rect839" d="m 6.8855286,4.1272783 c -1.1852,0 -2.1393,0.9541 -2.1393,2.1393 V 52.610578 c 0,1.185996 0.9541,2.139996 2.1393,2.139996 H 53.229529 c 1.186,0 2.14,-0.954 2.14,-2.139996 V 6.2665783 c 0,-1.1856 -0.954,-2.1397 -2.14,-2.1397 H 6.8855286 Z" style="fill:none;fill-rule:evenodd;stroke:#000;stroke-width:3.125;stroke-linecap:round;stroke-linejoin:round"/><g id="g1100" transform="matrix(.71342 0 0 .71342 8.9879 -1.3338)" style="stroke:#000;stroke-opacity:1;stroke-width:2.82161982;stroke-miterlimit:0;stroke-dasharray:none;stroke-dashoffset:10.72215584"><path id="path1815" d="m62.536 43.773h-67.7" transform="matrix(1.0141 0 0 1.0141 .36301 -.46831)" style="stroke-linejoin:round;stroke:#000;stroke-linecap:round;stroke-width:2.78238814;fill:none;stroke-opacity:1;stroke-miterlimit:0;stroke-dasharray:none;stroke-dashoffset:10.57307548"/></g><path id="path831" d="m 6.1646197,37.864751 c 0,0 5.4070333,-21.298651 13.3194363,-21.466247 C 30.256767,16.5661 28.883968,42.49513 40.330789,42.326603 47.72923,42.158076 53.481413,16.667251 53.481413,16.667251" style="fill:none;stroke:#000;stroke-width:3.831;stroke-linecap:round;stroke-linejoin:round;stroke-miterlimit:4;stroke-dasharray:none"/><metadata id="metadata1239"/></svg>