<svg xmlns="http://www.w3.org/2000/svg" xmlns:svg="http://www.w3.org/2000/svg" style="enable-background:new 0 0 49 49" id="Capa_1" x="0" y="0" version="1.1" viewBox="0 0 49 49" xml:space="preserve"><metadata id="metadata1838"/><g style="fill:#000;fill-opacity:1;stroke:none" id="g1801" transform="matrix(0.9354883,0,0,0.91935371,1.6996721,2.2074067)"><path style="fill:#000;fill-opacity:1;stroke:none" id="path1791" d="M 39.914,0 H 37.5 9.5 0.5 v 49 h 7 33 8 V 8.586 Z M 35.5,2 v 14 h -24 V 2 Z M 9.5,47 V 28 h 29 v 19 z m 37,0 h -6 V 26 h -33 v 21 h -5 V 2 h 7 v 16 h 28 V 2 h 1.586 L 46.5,9.414 Z"/><path style="fill:#000;fill-opacity:1;stroke:none" id="path1793" d="m 13.5,33 h 7 c 0.553,0 1,-0.447 1,-1 0,-0.553 -0.447,-1 -1,-1 h -7 c -0.553,0 -1,0.447 -1,1 0,0.553 0.447,1 1,1 z"/><path style="fill:#000;fill-opacity:1;stroke:none" id="path1795" d="m 23.5,35 h -10 c -0.553,0 -1,0.447 -1,1 0,0.553 0.447,1 1,1 h 10 c 0.553,0 1,-0.447 1,-1 0,-0.553 -0.447,-1 -1,-1 z"/><path style="fill:#000;fill-opacity:1;stroke:none" id="path1797" d="m 25.79,35.29 c -0.181,0.189 -0.29,0.45 -0.29,0.71 0,0.26 0.109,0.52 0.29,0.71 0.189,0.18 0.439,0.29 0.71,0.29 0.26,0 0.52,-0.11 0.71,-0.29 0.18,-0.19 0.29,-0.45 0.29,-0.71 0,-0.26 -0.11,-0.521 -0.29,-0.71 -0.37,-0.37 -1.05,-0.37 -1.42,0 z"/><path style="fill:#000;fill-opacity:1;stroke:none" id="path1799" d="m 33.5,4 h -6 v 10 h 6 z m -2,8 h -2 V 6 h 2 z"/></g></svg>