<svg xmlns="http://www.w3.org/2000/svg" xmlns:svg="http://www.w3.org/2000/svg" id="svg8" width="100mm" height="100mm" version="1.1" viewBox="0 0 100 100"><metadata id="metadata5"/><g id="layer1" transform="translate(0,-197)"><g style="font-style:normal;font-variant:normal;font-weight:400;font-stretch:normal;font-size:96px;line-height:1.25;font-family:Garuda;-inkscape-font-specification:Garuda;letter-spacing:0;word-spacing:0;fill:#000;fill-opacity:1;stroke:none" id="flowRoot815" aria-label="t0" transform="matrix(1.2390933,0,0,0.88498662,-49.712829,119.1651)"><path style="font-style:normal;font-variant:normal;font-weight:400;font-stretch:normal;font-size:96px;font-family:Garuda;-inkscape-font-specification:Garuda" id="path848" d="m 65.701156,157.19597 q 0,4.128 0.96,5.952 1.056,1.824 3.648,1.824 0.576,0 1.824,-0.096 1.344,-0.192 1.92,-0.192 l 1.248,6.624 q -2.976,0.576 -6.432,0.576 -3.936,0 -6.432,-0.864 -2.4,-0.96 -3.552,-3.168 -1.056,-2.208 -1.44,-4.512 -0.288,-2.4 -0.288,-6.624 v -28.704 h -6.144 v -6.432 h 6.144 v -12.384 l 8.544,-5.088 v 17.472 h 8.352 v 6.432 h -8.352 z"/><path style="font-style:normal;font-variant:normal;font-weight:400;font-stretch:normal;font-size:64.99999762%;font-family:Garuda;-inkscape-font-specification:Garuda;baseline-shift:sub" id="path850" d="m 78.468556,168.16877 q 0,-23.2128 14.664,-23.2128 14.539204,0 14.539204,23.2128 0,23.088 -14.539204,23.088 -14.664,0 -14.664,-23.088 z m 5.5536,0 q 0,18.5952 9.1104,18.5952 8.985604,0 8.985604,-18.5952 0,-18.72 -9.110404,-18.72 -8.9856,0 -8.9856,18.72 z"/></g></g></svg>